<svg id="circuit-svg" viewBox="0 0 800 600" xmlns="http://www.w3.org/2000/svg">
    <defs>
        <linearGradient id="energy-flow-light" x1="0%" y1="0%" x2="100%" y2="0%">
            <stop offset="0%"  stop-color="rgba(100, 149, 237, 0)" />
            <stop offset="50%" stop-color="rgba(100, 149, 237, 0.5)" />
            <stop offset="100%" stop-color="rgba(100, 149, 237, 0)" />
        </linearGradient>
        <linearGradient id="energy-flow-dark" x1="0%" y1="0%" x2="100%" y2="0%">
            <stop offset="0%"  stop-color="rgba(0, 255, 255, 0)" />
            <stop offset="50%" stop-color="rgba(0, 255, 255, 0.7)" />
            <stop offset="100%" stop-color="rgba(0, 255, 255, 0)" />
        </linearGradient>
        <filter id="glow-light">
            <feGaussianBlur stdDeviation="2" />
            <feComponentTransfer>
                <feFuncA type="linear" slope="1.2"/>
            </feComponentTransfer>
            <feMerge>
                <feMergeNode/>
                <feMergeNode in="SourceGraphic"/>
            </feMerge>
        </filter>
        <filter id="glow-dark">
            <feGaussianBlur stdDeviation="4" />
             <feComponentTransfer>
                <feFuncA type="linear" slope="1.8"/>
            </feComponentTransfer>
            <feMerge>
                <feMergeNode/>
                <feMergeNode in="SourceGraphic"/>
            </feMerge>
        </filter>
    </defs>
    <g id="circuit-group">
        <circle class="circuit-node" cx="100" cy="100" r="6" />
        <circle class="circuit-node" cx="200" cy="200" r="6" />
        <circle class="circuit-node" cx="300" cy="100" r="6" />
        <circle class="circuit-node" cx="400" cy="200" r="6" />
        <circle class="circuit-node" cx="500" cy="100" r="6" />
        <circle class="circuit-node" cx="600" cy="200" r="6" />
        <circle class="circuit-node" cx="700" cy="100" r="6" />

        <path class="circuit-line" d="M100,100 L200,200 L300,100 L400,200 L500,100 L600,200 L700,100" />

        <circle class="circuit-node" cx="150" cy="300" r="6" />
        <circle class="circuit-node" cx="250" cy="400" r="6" />
        <circle class="circuit-node" cx="350" cy="300" r="6" />
        <circle class="circuit-node" cx="450" cy="400" r="6" />
        <circle class="circuit-node" cx="550" cy="300" r="6" />
        <circle class="circuit-node" cx="650" cy="400" r="6" />

        <path class="circuit-line" d="M150,300 L250,400 L350,300 L450,400 L550,300 L650,400" />

        <circle class="circuit-node" cx="200" cy="500" r="6" />
        <circle class="circuit-node" cx="300" cy="400" r="6" />
        <circle class="circuit-node" cx="400" cy="500" r="6" />
        <circle class="circuit-node" cx="500" cy="400" r="6" />
        <circle class="circuit-node" cx="600" cy="500" r="6" />

        <path class="circuit-line" d="M200,500 L300,400 L400,500 L500,400 L600,500" />
    </g>
</svg>
