<?xml version="1.0" encoding="utf-8"?>
<!-- Generator: Adobe Illustrator 27.5.0, SVG Export Plug-In . SVG Version: 6.00 Build 0)  -->
<svg version="1.1" id="Layer_1" xmlns="http://www.w3.org/2000/svg" xmlns:xlink="http://www.w3.org/1999/xlink" x="0px" y="0px"
	 viewBox="0 0 2599 1733" xml:space="preserve">
<g>
	<rect x="0" width="2598.076" height="1732.051"/>
	<g>
		<g>
			<path d="M344.962,523.101c5.81,5.022,39.393-19.393,29.583-6.885c-34.602,18.581,1.644,5.262,10.789-3.693
				c5.868-19.228,13.885,20.009,24.266,2.726c-0.072,7.961,10.426,4.21,9.666-0.429c16.189-0.165,35.173,10.321,51.748,9.694
				c16.295,7.783-7.009,8.386-2.944,11.211c9.272,3.799,28.825,1.049,37.522-0.261c4.921-1.925,12.467,15.518,15.731,15.442
				c0.497-12.336-11.609-29.522,10.243-29.12c38.562,34.67,63.893-20.459,61.4,11.553c11.876,11.734,5.163,3.212,7.213-5.555
				c20.149-2.05-0.931-17.698,13.54-19.498c-31.736-3.373-10.891-38.952-12.592-63.545c-3.671-4.876,37.288-17.292,24.635-5.736
				c-0.214,10.01-10.456,20.341-19.053,16.768c3.326,13.422-2.22,13.439,9.018,24.53c10.375,11.932-3.602,26.26,15.055,24.264
				c-0.869,22.018,4.032,18.562,10.982,1.151c14.544,3.96,0.23,16.616,5.224,23.392c5.842,4.741,19.148,8.291,12.502-3.443
				c8.89,1.198,1.145-9.449,5.214-11.475c8.416-4.898,3.593-2.233,1.336-11.474c-2.531-11.211,28.895-0.251,25.861,8.471
				c-10.905,8.038,8.839,32.659-18.28,32.739c-6.94,0.924-14.158-3.912-17.154,2.115c18.7,11.25-24.743,6.882-29.668,6.265
				c47.29,13.798,24.389,27.085-10.045,25.604c29.399,5.997-17.897,17.891-15.241,51.093c21.34,2.585,17.626,26.898,41.308,21.701
				c11.846,11.401,35.129,13.353,43.506,21.53c-1.391,8.785-1.004,22.63,13.416,22.362c5.467,7.804,5.676,15.35,11.786,4.826
				c-8.516-41.456,2.64-22.691,11.466-49.856c3.35-12.099-12.791-19.566-7.198-29.39c4.755-7.456-1.173-5.455-1.134-13.942
				c0.441-3.684,1.077-14.345-2.471-16.597c6.906,0.445,28.897-3.39,36.104,3.45c8.021,10.574,24.499,4.753,19.625,17.468
				c-4.652,17.142,17.933,26.298,26.054,13.153c8.01-25.491,15.634-6.825,24.922,12.085c7.524,6.052-4.021,11.795,2.365,15.621
				c6.504,2.328,6.467,7.854,6.923,11.565c20.352-0.635,21.922,7.047,5.012,16.676c9.616,1.357,38.722-13.506,21.897,19.332
				c-34.953,19.822-76.285,9.025-97.884,50.919c10.598-5.783,26.93-25.203,40.073-26.394c12.471,4.171,1.653,14.949-5.493,13.148
				c8.22,6.673,4.452,8.273,11.644,18.01c13.583,9.455,19.071,6.419,23.225-6.271c12.062,1.72-10.152,25.085-19.611,23.912
				c-11.337,6.751-22.959,14.333-8.437-3.266c5.001-0.901,16.296-4.871,5.021-5.556c-4.721-8.375-19.94,12.764-29.655,10.41
				c-16.799,13.473-6.444,31.819-32.418,35.656c-3.518,3.655-4.543,25.505-8.242,12.003c-4.022-5.901-2.157-4.675-1.795,1.851
				c6.38,19.271-7.015,20.705-3.514-0.443c-5.724-7.431-5.339,32.3-0.943,32.653c0.678,3.066-7.459,2.591-1.515,6.186
				c-5.966,2.778-11.439,8.505-17.147,12.441c-37.251,10.01,8.126,70.099-17.051,61.158c-6.887-33.958-18.072-37.025-51.382-34.682
				c-11.449,2.695,4.319,4.823,2.198,8.907c-2.525,0.651-5.778-2.824-10.241-0.262c-48.242-27.471-67.938,67.227-22.173,77.837
				c20.325-1.885,17.932-4.861,26.526-21.72c37.359-8.525,9.048,12.576,10.993,29.136c-16.156,14.9,16.299,6.743,27.391,11.385
				c15.445,11.816-11.451,32.043,8.722,40.766c9.591,11.812,31.801-6.305,37.898,9.71c2.279-13.498,13.888-22.319,29.003-25.064
				c56.247-4.197,103.387,36.498,143.277,65.47c15.357,30.333,62.117,30.165,87.949,50.487c31.117,1.869-0.367,44.493-12.893,50.121
				c-0.804,10.55-4.579,37.063-3.978,48.546c-18.387,5.564-40.554,28.856-54.975,42.697c-5.88,24.576-38.657,70.718-59.814,68.325
				c11.353,23.406-24.53,12.24-28.306,26.639c-22.074,1.194,4.495,26.938-7.075,22.115c-12.697-9.372-29.024,27.902-22.115,45.315
				c-23.719,21.361-32.697,66.723,15.933,69.889c-36.872,19.036-90.598-22.33-76.196-72.542
				c2.56-71.054,38.853-144.104,30.508-211.971c-26.986-24.964-44.339-40.953-60.448-78.016
				c-23.105-25.123,0.72-50.536,15.914-72.184c4.056-14.516-6.369-48.651-20.28-25.236c-25.081-7.498-27.628-19.149-46.422-37.605
				c-32.851-18.466-63.978-27.709-98.587-38.99c-29.652-22.573-48.501-75.335-81.098-99.023
				c-1.085,11.539,48.66,76.626,19.699,52.779c3.227-9.534-24.128-20.527-21.801-25.067c15.146,9.769-15.914-46.394-29.37-45.187
				c-29.95-25.893-27.644-77.89-24.061-114.726c-9.398-15.837-7.286-19.386,9.086-11.648c-2.44-14.595-25.079-19.101-35.06-26.11
				c-12.881-21.059-23.614-37.54-44.543-48.365c-14.797-33.139-53.474-30.251-79.402-44.47
				c-10.661-1.505-21.115,29.692-33.945,23.287c1.235-5.031,1.439-14.446,9.863-16.944c5.323-2.651,5.114-2.826,3.04-2.651
				c-7.543,0.153,9.014-6.371,6.248-7.765c-23.686,2.901-33.741,43.099-54.96,53.833c-9.145,8.073-71.529,36.187-39.046,14.292
				c11.307-3.422,50.994-26.82,37.915-35.651c-21.692,6.625-70.378-15.078-42.094-38.293c18.491-7.865,26.83-5.653,16.871-23.131
				c-32.057,21.404-47.66-19.461-9.849-8.12c33.906-10.917-12.75-12.523-13.83-29.473c18.243-22.304,59.908-52.867,85.666-30.889
				C264.331,516.98,322.126,539.085,344.962,523.101z M800.696,318.369c-12.465,32.185-96.972,27.078-29.746,63.892
				c53.342,1.276,100.917,15.196,91.156,78.55c4.85,5.571,4.885,16.495,7.579,22.763c15.211-16.762,39.167,11.889,6.451,26.116
				c-11.669,32.59,29.948,111.685,68.594,96.022c7.224-7.842,9.783-54.75,22.183-60.193c27.517-6.975,29.485-11.419,44.159-31.957
				c25.13-13.335,83.734-17.56,64.073-56.642c-1.818-21.083,19.534-36.858,25.213-51.534c-4.02-17.068-17.546-46.281,2.834-55.429
				c-34.936-25.992,18.991-57.563,39.609-70.244c6.98-16.478-62.596,0.268-72.402,5.303c1.145-5.319,2.383-21.369,12.717-24.896
				c-26.65-10.098-93.566-28.173-117.522-2.996c-28.016-1.961-76.515-6.318-32.603,23.116
				C906.472,251.338,756.078,303.461,800.696,318.369z M519.815,464.274c3.45,27.196-4.886-0.893-14.155,2.931
				c-13.653,5.576-7.254,1.326-13.907-3.64c-13.904,1.293-15.741,11.766-15.152-4.825c-18.798,1.497-40.071,22.183-18.327,32.119
				c-18.419,5.25-3.21,9.277,6.572,7.652c64.655,3.17,4.366,3.486-10.616,11.523c20.625,15.154,49.588,23.278,71.899,1.067
				c6.041,4.765,35.058,16.251,31.723-0.117c0.499-2.348-5.075,0.467-7.083,1.651c-6.555-9.591,27.657-1.516,8.714-13.764
				C542.027,500.335,525.418,430.449,519.815,464.274z M414.937,454.277c2.49,8.808-11.047,22.12-11.501,29.529
				c9.817,9.224,29.915,16.475,34.999-1.185c-3.703-11.8,40.689-23.689,25.785-33.292
				C455.826,444.292,400.244,432.912,414.937,454.277z M579.448,510.636c-17.382,6.481,18.744,15.186,23.247,5.535
				C599.377,512.757,581.278,493.64,579.448,510.636z M555.56,455.567c-8.532,4.83,17.627,22.382,25.274,20.953
				c20.453-5.554,12.088-24.465-2.777-20.72c28.71-16.733-13.014-19.154-20.97-8.011c1.9,3.132,17.426,1.68,9.347,11.069
				C559.89,466.681,561.588,451.674,555.56,455.567z M531.313,444.744c-16.955,0.641,9.301,16.639,9.34,7.769
				C542.046,446.511,540.029,443.911,531.313,444.744z M440.075,399.2c-8.636,6.741-26.241,25.665-5.806,18.6
				c5.75,1.601,24.376-25.087,20.344-10.596C473.896,411.323,477.401,366.774,440.075,399.2z M478.612,407.208
				c-27.044-1.194-23.532,38.809-0.121,16.36c5.375-6.437-0.618,10.91,8.977,2.81c25.762-6.609-9.367,9.019-14.286,8.242
				c10.765,9.281,49.712-8.615,60.668-15.402c7.661-20.462-9.292-10.191-8.855-3.533c-2.5-2.895-9.322-14.441-12.511-18.602
				c-18.687,4.1,0.411,13.94,0.388,21.295C499.117,425.224,489.849,406.695,478.612,407.208z M455.239,413.331
				c0.801-1.366-9.59,6.116-11.173,8.524C445.795,428.417,453.637,420.5,455.239,413.331z M475.211,397.733
				c-6.887,3.315,10.773,3.467,7.449-0.65C481.787,395.317,477.295,396.792,475.211,397.733z M496.752,375.387
				c-6.966,1.86-15.194,3.371-10.106,11.64c1.173,5.633,32.83-5.177,12.518-7.287C498.479,378.107,523.257,372.093,496.752,375.387z
				 M472.812,379.086c-6.394,1.833,11.911,5.383,9.532,2.708C481.787,380.485,478.428,376.487,472.812,379.086z M489.102,367.496
				c-16.008,11.21,10.405,0.39,18.08,1.991C520.327,360.732,503.27,360.497,489.102,367.496z M531.938,378.144
				c-3.919,3.439,9.185,12.86,10.173,8.708C542.743,384.503,535.043,376.003,531.938,378.144z M546.536,396.617
				c-9.018-2.185-7.439,9.122,0.058,9.766C556.918,407.719,553.668,397.635,546.536,396.617z M565.176,402.15
				c-3.002-3.984-11.14-4.106-7.966,0.884c2.43-0.072,7.616,4.673,0.509,4.941c-14.286-0.651-2.138,5.595,5.807,4.767
				c22.532-7.955-10.238,15.142,14.667,8.232c14.728,1.389,1.194-15.425,9.722-9.003c1.509-17.473-14.722-23.149-22.055-14.586
				C573.538,403.147,573.303,410.859,565.176,402.15z M542.112,418.914c-2.028,0.82-2.796,3.13-2.909,4.65
				C540.354,427.539,556.864,416.832,542.112,418.914z M601.755,410.915c-18.699,7.063,0.89,18.277,9.976,12.409
				C614.195,420.564,610.595,406.082,601.755,410.915z M626.134,390.384c-35.597-5.559-48.664-1.989-7.572,10.316
				c-4.707,37.884,60.372,28.664,83.97,14.221c6.963-29.714-43.746-1.387-58.102-6.27
				C618.168,400.056,654.15,396.721,626.134,390.384z M545.779,357.555c12.324,2.386-12.547,6.655-3.034,7.584
				c9.715-5.265,35.386,16.984,34.316,3.352C569.644,342.884,507.387,349.327,545.779,357.555z M600.371,314.311
				c-20.353,16.635,22.7,11.685-4.181,16.327c-21.594,15.253,42.317,5.508,28.813,14.116c-37.315,7.814,10.878,21.288,21.603,14.649
				c4.574-6.208,5.323-13.654,14.689-15.355C671.042,343.914,612.549,285.363,600.371,314.311z M590.689,365.938
				c-13.832,9.096,14.597,4.474,15.362-1.687C601.123,361.116,566.461,339.365,590.689,365.938z M822.551,274.133
				c-42.28-14.739-197.439-4.016-119.019,19.996c-12.928-7.195-69.087-9.457-77.583,6.123c32.049,25.773,53.182,12.801,91.48,0.236
				c-21.064,29.578-86.609,5.294-36.133,48.701c-10.341-10.574-49.796,11.894-13.15,17.884c12.714,0.132,21.577-5.178,2.027,4.953
				c-2.583-2.215-29.002-8.411-19.201,1.881c13.251,8-32.427,17.819,4.541,18.596c5.387,0.218,28.678-0.375,33.613-4.244
				c13.714,1.102-2.989,12.399,18.708,2.356c19.41-13.806-11.7-12.546,4.041-31.287c1.715-0.645,36.163-15.033,18.185-24.726
				c-0.163-0.889,24.841-4.717,28.813-12.469c3.536-4.473,4.803-6.122-3.779-5.173c-9.333,2.961,72.089-32.542,39.659-26.826
				C742.434,290.392,817.157,285.903,822.551,274.133z M681.045,437.445c-39.916-16.657-66.549,59.417-18.96,57.417
				c38.978,1.292,47.24-22.12,74.051,17.662c45.259,28.65-4.816,44.807-23.76,50.112c-0.329,16.453,29.81-1.949,34.37,5.184
				c5.112,8.212,22.487,7.794,6.824,12.241c-5.866-0.478,49.997,20.325,36.635,9.647c-22.68-17.698-10.587-18.535,5.06-5.416
				c22.353-10.021-18.314-29.16-18.96-40.243c3.833-12.682,13.484-10.689,21.998,2.35c12.869,24.9,37.371-25.297,0.005-25.403
				c-60.25-22.636,13.587-4.57-19.722-35.075C718.235,428.375,702.832,479.478,681.045,437.445z M692.409,437.445
				c-9.909,9.799,24.75,16.07,28.554,8.702C722.748,445.678,702.267,436.262,692.409,437.445z M664.047,554.164
				c-11.187,33.332-3.94,27.296,22.547,22.59C715.592,586.07,666.543,548.268,664.047,554.164z M711.732,966.528
				c-2.99-24.393-71.403-4.781-16.987-8.606c-10.683,1.993,22.672,13.518,12.744,23.174
				C731.215,997.989,723.689,980.868,711.732,966.528z M730.088,992.375c14.039,19.833-21.415,0.023-7.835,9.602
				c16.648,11.872,7.404,2.011,28.233,5.49C787.501,1013.387,727.776,982.938,730.088,992.375z M702.183,994.824
				c-3.691-4.083-8.299-4.675-8.34-1.2C692.059,998.549,706.528,1000.067,702.183,994.824z M773.366,1012.53
				c-4.007-1.375-4.832,1.642-2.166,4.158C778.132,1020.738,791.803,1017.954,773.366,1012.53z M727.255,520.018
				c-13.925,0.619,2.739,22.539,5.391,15.359C734.454,530.966,736.254,516.218,727.255,520.018z M684.711,585.351
				c-14.446-0.618-11.176,13.861-0.517,7.058C689.635,589.709,693.426,583.943,684.711,585.351z M701.384,592.175
				c-1.366,0.416-1.767,3.533,0,6.349C705.602,602.859,714.329,586.487,701.384,592.175z M613.944,374.969
				c-27.434,2.549-5.659,4.418,9.107,3.883C644.028,375.38,636.042,368.651,613.944,374.969z M566.568,333.434
				c-7.733,2.399-5.817,3.999,3.275,7.999C586.083,350.19,577.92,323.646,566.568,333.434z M1106.682,530.383
				c-26.477-0.112-26.159,38.168-36.825,4.409c-19.462-12.282-3.867,6.556-18.793,10.328c1.861,0.777,23.987,0.879,11.64,11.439
				C1096.468,589.713,1188.077,520.712,1106.682,530.383z M1746.402,1048.818c-0.96,5.912-5.222,26.923,6.947,22.181
				C1763.987,1068.631,1750.958,1046.204,1746.402,1048.818z M1744.085,1044.451c1.981,5.247,2.358-2.539-0.075,0.233
				 M2016.917,1232.278c-41.82,11.689-65.947,33.008-42.442,74.845c14.293,17.262-12.113,48.04,20.644,41.641
				c36.3-10.845,82.975-54.644,115.235-15.002c29.247-23.313,0.388,12.195,15.74,0.005c5.42,29.835,44.865,36.739,66.527,24.346
				c19.604-9.457,35.372-59.498,31.086-83.835c0.422-14.417-12.701-10.746-15.742-20.469c-0.108-12.389-4.833-2.802-9.474-9.532
				c-0.043-13.612-23.062-9.521-19.724-22.063c2.395-11.637-7.916-8.1-6.241-17.947c1.289-12.598-7.55-4.119-11.245-13.535
				c-18.331-40.374-7.448,17.185-19.327,28.246c-68.404-17.978,2.384-39.735-43.472-40.013c-15.527-2.67-5.044,7.566-11.106,7.188
				c-15.092-5.828-15.354,9.464-18.707,16.582C2047.723,1190.365,2026.15,1208.55,2016.917,1232.278z M1848.304,1073.197
				c-8.453,1.563,10.85,12.55,13.141,14.696c12.83,18.024,18.277,35.47,35.117,51.073c28.943,28.573,20.667-16.207,4.162-26.942
				C1899.266,1101.766,1862.758,1076.968,1848.304,1073.197z M1921.837,1149.088c-33.632,5.775,59.452,23.105,45.62,11.065
				C1952.967,1150.28,1936.037,1154.068,1921.837,1149.088z M1986.029,1162.029c-20.904,7.184,30.233,2.354,11.865-0.244
				C1996.324,1161.389,1986.648,1164.133,1986.029,1162.029z M2009.534,1161.553c-8.02,7.743,25.832-0.628,31.46-0.467
				C2030.119,1158.901,2020.826,1164.359,2009.534,1161.553z M2034.806,1167.319c-13.507,16.738,16.5-4.119,19.547-6.7
				C2044.833,1160.57,2044.873,1161.854,2034.806,1167.319z M2008.393,1169.178c-4.56-3.845-11.264,0.245-4.934,2.516
				C2012.291,1176.378,2014.996,1173.223,2008.393,1169.178z M1978.197,1071.073c-0.008,11.777-32.129,16.043-26.534,28.003
				c-5.657,2.736-10.888-10.063-14.392,0.001c-0.62,8.457-3.359,16.124,5.678,18.356c-0.059,16.998,15.269,9.008,25.901,12.823
				c21.229,14.005,15.173-27.304,28.936-27.889c4.091-6.452-6.403-4.597-4.679-14.939c-2.875-6.788,3.823-9.649,7.709-14.474
				C1996.585,1066.638,1985.256,1054.87,1978.197,1071.073z M2351.558,1320.875c2.171,6.649,21.51,20.346,9.235,35.188
				c14.472,5.991-5.319,15.365,10.497,11.059c24.286-37.798,22.212-19.208-0.26-29.301
				C2359.552,1335.115,2365.828,1323.379,2351.558,1320.875z M2352.324,1363.594c-9.375,15.957-32.365,29.226-42.573,44.708
				c21.934,13.971,28.094-11.403,41.436-23.658C2370.313,1367.024,2357.795,1372.713,2352.324,1363.594z M2322.528,1408.789
				c-4.441-2.35-5.308,2.025-6.024,6.515C2314.205,1421.394,2329.542,1410.345,2322.528,1408.789z M2172.273,1377.942
				c-16.1,19.899,25.644,26.367,23.125-2.471C2190.747,1376.516,2179.05,1386.15,2172.273,1377.942z M2109.354,1125.316
				c-9.545,1.427-8.863-23.182-23.505-14.12c-15.588,3.234,5.116,5.668,5.558,7.299c15.742,2.312-13.307,5.444,17.951,15.294
				c19.969,4.912,26.888,15.674,13.642,23.3c9.959-1.339,32.026,14.709,39.672-0.71c5.341-11.219,48.594,24.326,41.7,12.24
				C2182.474,1146.957,2141.111,1095.158,2109.354,1125.316z M2042.871,1101.786c-8.343,3.521-38.86-11.043-33.53,11.142
				c0.244,7.636-17.562,23.926-3.457,27.111c3.008,3.876-7.042,20.138,5.507,16.265c3.942-0.883,0.476-1.166,0.476-4.391
				c3.349-12.363-0.008-30.006,9.599-7.324c2.49,7.922,9.734,0.236,11.323-1.326c-8.473-1.983-1.797-4.021-6.607-12.456
				c-8.479-9.395,3.605-5.18,6.139-12.609c19.184-7.471-18.465,5.022-18.57,0.743c-4.928-15.391,8.502-11.924,22.513-11.88
				C2051.244,1108.78,2059.917,1083.897,2042.871,1101.786z M2064.119,1088.963c-8.779,1.1-10.276,20.518-1.642,23.882
				C2065.11,1106.066,2062.134,1096.875,2064.119,1088.963z M2049.588,1127.59c-9.159-4.746-12.09,7.535-2.434,6.817
				C2053.337,1134.407,2060.32,1131.682,2049.588,1127.59z M2061.136,1125.625c-6.954,9.758,2.011,10.017,9.747,4.537
				c7.714-0.278,20.597,8.212,7.826-3.322C2072.193,1122.742,2069.252,1123.05,2061.136,1125.625z M1945.534,975.943
				c-20.509-3.56-7.728,22.518,1.086,4.533C1949.348,977.717,1949.074,973.053,1945.534,975.943z M2013.959,984.118
				c-5.147-0.702-5.091,14.63-3.791,17.539c-4.382-6.522-6.819,5.951-1.394,8.116c19.422,18.617,11.619,0.825,25.516,13.763
				c-1.55-5.82-3.156-11.331-11.743-10.353C2005.677,1008.6,2037.516,982.311,2013.959,984.118z M2044.021,1047.351
				c-1.755,0.763-10.242,3.729-11.881,6.751c3.248-11.406-17.182,5.354-10.334,8.03c10.428-14.826,10.212-1.867,15.478,6.311
				c12.431,2.329,2.084-5.721,8.02-9.312c0.555-1.372,2.73,9.018,3.559,4.41C2053.951,1058.123,2042.547,1033.902,2044.021,1047.351
				z M2029.482,1032.945c-8.44-22.868-28.779,6.889-4.776,0.78c-0.769,1.136-9.878,7.877-4.18,10.477
				C2027.09,1056.647,2041.819,1013.839,2029.482,1032.945z M2036.64,1024.32c8.936,15.918-4.176-0.227,2.416,15.482
				c2.228,4.379,0.603-3.318,1.041-4.716C2042.333,1033.648,2049.525,1022.879,2036.64,1024.32z M2003.952,1032.478
				c-1.858,5.727-9.662,15.136-13.893,19.154C1994.825,1051.179,2012.587,1036.976,2003.952,1032.478z M2213.159,1128.841
				c1.391,9.079-10.051,10.487-16.624,8.948C2180.643,1150.449,2239.67,1138.081,2213.159,1128.841z M2229.573,1135.906
				c1.862,4.171,6.227,9.047,10.932,9.415C2244.32,1146.463,2226.318,1126.202,2229.573,1135.906z M2016.167,938.048
				c-8.1,5.149-11.749,4.766-8.525,11.299C2014.184,978.224,2027.234,933.898,2016.167,938.048z M2154.841,684.189
				c-3.451,16.602-3.863,29.972-3.408,48.361c-0.887,13.996-7.949,34.713,6.937,31.414c9.061,8.924-6.976-18.422-3.019-20.823
				c0.893-23.028,19.184,7.201,11.237-9.997C2158.218,723.137,2161.302,676.565,2154.841,684.189z M2151.05,774.327
				c1.093,11.64-5.395,16.076-10.743,21.287c-8.438,3.295-2.325,18.363,5.306,10.481c-16.516-12.022,9.66-7.159,14.666-3.412
				c-2.496-8.982,14.9-6.295,15.546-11.181c-1.369-12.634-5.235-4.001-13.788-8.114
				C2158.744,782.799,2153.282,768.626,2151.05,774.327z M2139.735,812.914c-9.002,60.019-23.502,15.893-28.138,42.892
				c-1.16,8.148-7.033-1.622-14.879,2.554c-7.767,1.353-8.511,10.007-17.059,10.411c-4.031,3.471-15.862,21.867-4.165,11.836
				c-3.361,15.539,5.16,20.944,10.997,0.523c1.146-7.375-10.336-3.7-4.658-9.007c5.652-2.093,21.358-6.026,27.015-5.295
				c1.793,6.146-0.087,10.22,8.141,4.943c1.731-7.154-3.399-5.353,7.968-5.903c11.066-6.853,10.687,1.801,20.562-4.678
				c-4.053-13.905,3.469-24.344,5.596-38.569C2145.661,811.092,2152.499,805.356,2139.735,812.914z M2104.364,865.949
				c-15.708-3.801-22.968,19.983-8.706,15.146c4.973-8.502,5.113-3.511,11.824-7.901
				C2112.154,867.474,2107.934,862.557,2104.364,865.949z M2458.469,604.591c-22.168-3.556,4.502,8.785,10.8,7.763
				C2480.154,610.751,2463.674,606.847,2458.469,604.591z M2390.027,510.311c-17.329,13.539,24.776,7.833,27.938,5.907
				C2417.351,507.629,2394.869,512.804,2390.027,510.311z M2176.513,430.796c7.383,21.826,61.3,0.813,16.026,1.946
				C2192.818,428.444,2177.371,423.993,2176.513,430.796z M2139.359,442.886c-5.733,5.618,13.983,21.523,23.219,19.859
				C2159.858,456.641,2146.965,440.437,2139.359,442.886z M2173.188,425.596c-13.032-9.23-20.813-14.587-33.078-8.824
				c-23.05-20.681-32.24,22.259-6.532,17.643C2148.223,423.846,2162.437,443.15,2173.188,425.596z M1845.014,299.546
				c-59.38,17.706,7.801,45.965,32.73,40.244c-6.188-4.529,3.342-13.536-2.147-16.597c-9.157-4.573-9.862,1.881-5.687-3.648
				c-5.354,2.219-18.644-8.949-7.339-11.186C1865.456,306.794,1841.901,290.643,1845.014,299.546z M1892.524,335.191
				c-13.819,7.675-28.386,30.585-1.516,19.064c30.647,10.316,23.371-12.423,1.268-14.587
				C1903.069,336.35,1901.379,334.974,1892.524,335.191z M1600.402,277.182c-6.615,2.375-4.299,3.533-8.598,6.95
				C1586.144,296.301,1644.347,270.468,1600.402,277.182z M1615.051,293.78c-12.218,6.892,5.264,13.723,12.006,6.816
				C1634.429,295.392,1627.088,286.177,1615.051,293.78z M1580.53,292.071c-9.491,4.07,13.848,7.401,17.523,3.525
				C1608.643,291.045,1582.408,290.337,1580.53,292.071z M1521.963,299.212c7.705-1.854,32.112,0.106,10.798,5.485
				c-9.099,0.965,0.858,2.381,7.299,2.115c7.254-6.727,10.95-9.158,22.933-10.41
				C1570.527,284.751,1486.742,298.162,1521.963,299.212z M1570.282,300.896c-5.416,0-18.473,3-7.483,4.058
				C1577.472,308.129,1586.251,302.348,1570.282,300.896z M1608.585,303.195c-14.292-7.281-29.841,7.402-8.539,4.769
				c3.215-0.536,3.032-1.503,0.949-2.302C1598.904,304.87,1613.127,304.695,1608.585,303.195z M1640.989,293.663
				c-24.618,7.438,27.511,6.575,12.697-8.04C1647.968,285.671,1648.468,292.22,1640.989,293.663z M1176.899,632.17
				c-13.872,24.441,8.663-2.708,9.25,6.457c-0.301,6.075-5.967,5.192-4.183,11.141c1.791,5.958,0.45,5.449,10.14,7.599
				c6.263,0.18,6.639,13.637,5.664,16.215c-9.146-2.091-13.799-5.302-7.604,6.835c1.792,4.047-1.192,6.33-6.849,8.988
				c-10.692,8.206,20.388-0.171,16.98,5.573c-18.799,11.747-41.324,23.875,6.425,11.778c17.352-1.413,38.453-10.3,22.347-8.736
				c-5.903-0.4,13.106-21.689-6.862-21.399c-8.656-12.794,22.681,4.013-2.979-13.806c-10.66-8.916-14.105-21.157-25.032-18.36
				c13.157-14.155,18.794-23.42-4.322-21.394C1207.976,604.462,1172.249,612.683,1176.899,632.17z M1161.842,651.543
				c-18.899,9.457,6.827,4.927-9.832,11.655c-20.379,15.559,6.357,5.774-5.357,18.738c-18.996,26.705,29.468,7.577,25.631-5.319
				C1170.321,665.104,1181.84,650.217,1161.842,651.543z M1284.26,784.443c0.712,5.15-8.456,9.772-0.132,14.471
				C1286.094,803.917,1288.603,773.714,1284.26,784.443z M1282.368,803.974c-11.812,3.22-6.974,24.417,2.647,17.775
				C1290.362,818.083,1293.945,796.749,1282.368,803.974z M1381.422,855.975c-15.576,2.259,18.098,7.198,19.139,4.415
				C1404.033,857.822,1387.709,854.578,1381.422,855.975z M1435.24,858.975c-7.782-1.674-5.674,7.774,2.283,6.366
				C1449.026,862.155,1451.363,856.277,1435.24,858.975z M1241.673,815.147c-6.324,0.808-6.816,2.95-1.892,4.242
				C1246.542,821.402,1251.151,813.251,1241.673,815.147z M858.88,699.953c-4.277,10.439-47.1,40.986-10.239,39.18
				c16.497,3.182,15.164,5.657,18.963,4.598c7.121-2.096,2.858,15.837,9.85,1.591C879.915,708.975,848.023,732.697,858.88,699.953z
				 M354.419,688.663c-1.898,5.204,17.2,29.531,11.117,12.232C365.219,691.942,362.076,683.602,354.419,688.663z M382.091,717.376
				c0.288,4.939,34.177,26.032,28.424,11.765C406.057,724.24,383.505,718.055,382.091,717.376z M228.026,658.834
				c-9.785-6.433-18.302,15.383-7.114,7.068C222.946,662.433,239.717,658.29,228.026,658.834z M226.419,652.751
				c-8.413,5.905,6.377-0.135,7.39,0.001C233.81,652.751,229.643,650.801,226.419,652.751z M138.946,638.711
				c-16.496,0.343,6.962,6.628,6.825,2.211C143.109,637.416,146.04,634.982,138.946,638.711z M1537.727,1213.796
				c-5.811,12.583-40.392,8.802-23.762,29.423c6.064,10.822-5.042,9.648-7.842,22.355c-1.232,10.059,7.355,33.178,17.444,27.299
				c22.5-3.755,17.557-71.073,28.812-75.306C1551.343,1201.718,1542.231,1183,1537.727,1213.796z M1544.81,489.921
				c-14.947,4.588-2.876,11.551,7.382,5.031C1560.157,492.13,1551.334,488.422,1544.81,489.921z M1668.62,369.671
				c-9.367,3.12-55.036,18.073-72.271,29.88c-29.683,22.247-10.432,21.156-26.538,40.717c-26.749,19.82,20.966,40.884,29.332,31.78
				C1547.866,411.95,1684.616,387.888,1668.62,369.671z M1605.96,475.448c-8.662-1.225,13.577,18.904,8.839,7.533
				C1613.151,476.39,1608.485,475.099,1605.96,475.448z M1688.967,427.563c-11.124-6.656-6.497,6.143,2.534,6.823
				C1696.425,435.329,1692.508,429.213,1688.967,427.563z M819.01,723.725c-5.616-2.816-11.107-5.057-14.773-5.057
				C796.127,720.21,824.953,732.774,819.01,723.725z M805.628,747.381c-8.961,11.184,19.481,9.369,6.885,6.056
				C808.854,752.788,805.378,751.264,805.628,747.381z M2461.186,585.235c-14.995-1.982-13.505,1.054-14.985,12.358
				c-14.062-5.148-33.382-16.503-42.061-22.247c-15.97,25.657-30.235,1.446-9.091,35.129c-42.373,1.68-51.067,27.497-92.885,19.404
				c-43.202,21.955-13.406,20.797-14.773,25.237c-11.845,41.052-44.606,92.521-47.583,21.186
				c4.399-40.191,20.308-18.457,46.995-50.133c16.702-11.969,0.897-18.038,16.13-19.762c-9.256,0.509-12.052-3.467-19.733,6.187
				c-16.137,15.984-2.306-7.794-11.54-4.414c-7.425,1.887-49.669,13.184-37.527,27.708c-16.271,10.418-20.016-14.94-40.94-2.655
				c-35.132-17.283-52.491,18.135-81.504,36.904c-7.006,6.694-8.148,6.343-2.466,7.409c11.774-0.329,3.924,14.492,17.066,12.872
				c34.508-27.997,14.271,54.783-0.769,74.663c-16.83,38.449-44.428,15.238-54.582,42.524c-26.981,18.962,5.958,35.56-8.329,58.621
				c-19.361,16.725-9.841-20.485-11.761-26.666c-9.355-2.328-9.655-8.053-8.706-14.468c-7.69-7.734-19.711,2.647-20.287-11.473
				c-11.657,2.147-44.506,17.279-19.91,29.293c4.598,1.385,19.825-5.801,18.588,1.414c1.617-0.212-24.746,18.141-15.74,21.012
				c13.999,9.946,4.005,24.872,12.319,37.598c2.363,41.126-49.436,52.194-70.502,68.459c-2.719-18.015-36.733,0.249-30.896,14.314
				c29.199,15.161,19.97,64.039-5.316,62.652c3.601-17.877-27.235-19.659-27.865-28.24c-17.401,11.006-9.518,36.646,7.592,49.065
				c27.923,36.24-3.097,40.125-9.281,0.706c-26.823-11.53-6.611-67.865-26.634-73.078c-10.56,13.249-16.458,4.993-12.306-7.317
				c-3.439-6.942-18.578-37.25-26.728-29.568c-22.642,0.276-42.046,31.913-62.388,44.848c-11.008,6.739-4.48,60.087-25.659,48.883
				c-27.077-26.808-26.191-105.042-32.082-89.324c-6.435,13.325-31.814-2.582-10.499-9.867
				c-11.552,2.973-22.444-6.436-25.198-17.242c-33.729,9.096-68.829-2.941-97.366-18.363c-6.882-8.7-13.829-29.482-25.714-11.878
				c2.072,6.377,24.338,50.02,20.223,24.414c0.157,19.411,19.047,21.575,30.952,7.943c5.669-9.244,3.992-5.34,5.687,3.469
				c7.263,5.255,15.865,8.758,21.035,15.836c3.98,2.085-8.53,21.893-10.419,12.527c-3.089,0.724,0.72,15.192-6.764,14.878
				c-28.002,16.443-53.507,31.807-85.792,39.712c-9.114-8.658-5.205-29.46-16.368-40.24c-15.89-23.967-31.186-50.828-43.212-78.423
				c-0.945-3.002-3.411,4.88-5.36,6.413c-3.969,4.96-6.325-14.018-8.658-10.349c-3.725,15.235,15.43,30.5,18.128,46.712
				c11.033,19.594,13.753,34.375,24.271,53.592c6.345,11.874,27.261,14.425,23.68,31.599c35.756,26.01,87.015-43.596,33.617,46.539
				c-86.281,92.557-43.468,46.051-51.854,142.785c-33.851,18.453-32.68,20.94-30.142,57.711
				c-29.743,16.25-9.904,21.869-33.375,49.184c-13.877,21.488-61.485,41.567-78.707,19.362
				c-1.642-28.552-26.067-44.922-24.965-75.374c-9.846-21.693-22.019-40.138-12.947-64.542
				c14.899-23.368-0.157-60.333-16.107-79.597c-12.942-9.197,2.193-30.393-3.536-41.362c-4.233-12.743-19.17-0.211-25.651-10.471
				c-8.809-9.557-3.542-9.833-20.72-8.593c-21.078,8.536-40.187,5.875-60.096,12.123c-34.196-1.348-50.717-45.175-68.355-68.889
				c15.442-16.405-1.11-37.754,3.349-54.122c12.971-18.41,22.015-46.192,44.48-55.071c2.14-12.228,1.662-30.894,18.142-34.479
				c6.543-2.252,5.467-25.036,13.95-14.651c17.746,9.927,40.182-11.732,58.943-13.347c12.344,6.011,11.546-3.841,24.074-0.003
				c8.827,1.692,15.893-7.685,22.111,1.054c-0.082,1.396-6.314,6.733-2.337,9.888c8.689,9.044-13.402,12.936-0.254,18.949
				c105.059,57.595,29.994,1.043,81.183,9.515c13.901,11.279,37.495,14.787,53.516,9.245c26.11,16.876,31.169-28.189,32.029-44.947
				c0.195-3.724-5.873,1.384-8.021-1.769c-6.036-1.777-2.113,7.434-10.433,5.717c-19.431-11.998-13.168,1.672-29.314-3.468
				c-12.949-2.301-13.262-24.065-14.583-27.597c-12.877-4.79,14.489-9.052,18.75-10.941c7.955-1.81-8.258-3.756,1.202-4.947
				c14.614,2.731,13.891-10.091,28.628-8.358c25.71,15.279,76.677,13.482,32.47-20.883c-16.506-7.483-17.696-10.063-3.036-19.886
				c3.219-1.174-3.722-3.649-4.68-4.99c-1.434-1.799,10.65-1.265,9.289-5.367c-2.202-6.737-41.712,6.494-24.703,14.829
				c13.187,4.378-4.225,8.777-10.29,11.538c-5.684,1.381-0.909-7.927-6.957-6.235c-5.626-2.755-2.892-1.212,1.458-4.183
				c4.435-2.38,7.62-8.537-0.633-6.881c-3.22-0.161-13.09-4.029-4.675-3.118c9.176-5.569-15.23-2.258-15.852,6.468
				c-1.061,16.284-23.767,32.166-5.375,46.591c-4.178,1.005-12.719,2.11-15.222,7.954c-1.991-5.819-29.02-13.491-27.417,0.962
				c3.146,4.214,1.379,15.845,8.051,18.796c-1.992,2.016-2.895,22.239-9.283,13.768c-9.458-6.593-5.033-21.58-15.919-31.678
				c-3.396-13.849-0.166-22.88-18.59-31.329c-13.519-1.1-26.521-44.078-29.947-12.35c5.01,6.828,10.101,21.812,20.199,26.033
				c11.654,1.285-2.994,1.635,8.62,7.496c5.296,1.364,16.491,16.255,8.53,10.85c-5.123-5.384-5.206-2.901-6.631,0.799
				c3.603,13.863-6.689,15.866-12.509,21.703c3.098,20.575-5.497,3.441-16.111,1.41c1.12-4.497,33.027-4.002,20.652-20.567
				c-17.345-14.817-31.656-30.862-46.139-46.501c-14.267,8.461-16.586,10.57-32.425,10.938
				c-5.168,19.419-13.893,13.853-25.006,34.779c-2.308,16.76-5.599,27.189-25.78,28.952c-24.543,9.122-7.526-9.927-35.069-2.117
				c4.034-17.23,1.357-42.08,2.852-61.077c7.983-16.022,68.552,24.85,49.453-30.53c-11.273-11.543-39.497-30.678-9.267-22.946
				c16.383-4.77-5.939-13.013,13.823-7.056c11.348-0.6,1.907-6.732,14.417-9.358c-3.566-13.841,12.025-8.669,17.065-14.464
				c-2.448-19.121,7.731-17.405,18.751-22.942c30.136,3.717-11.262-41.378,15.16-46.431c23.478-8.612-30.476,61.133,38.298,40.591
				c62.591,6.454,22.207-55.166,51.913-30.891c8.56,6.17,10.405-14.187,8.344-14.113c-2.406,2.856-13.183-11.4-10.228-10.765
				c13.962-0.168,72.842-8.364,28.998-10.057c-58.822,14.707-38.809-33.706-14.025-54.188
				c-34.891-32.285-16.563,14.397-38.48,22.771c-23.168,12.02-3.565,29.745-2.069,39.348c-18.671,2.032-30.808,71.898-40.586,30.183
				c-29.332-60.348-4.68-12.501-45.481-14.285c-14.514-20.86,0.346-49.4,22.188-59.125c21.376-15.629,28.066-43.112,46.61-64.959
				c4.445-11.978,75.356-55.288,61.219-35.486c-15.91,21.079,4.588-4.287,13.454-2.459c3.311-2.215,26.37,7.58,17.265,10.229
				c-11.761,3.806-17.695,1.576-2.098,8.84c41.724-9.147-14.826,6.974,34.305,11.46c70.597,23.333,24.586,53.665-18.943,26.118
				c17.95,8.199,7.087,34.028,19.701,43.432c10.203,4.633,13.117,3.275,17.057-0.538c-0.69-3.685-12.127-7.647-5.301-11.826
				c18.061,6.012,12.373-8.267,26.912-16.777c27.934,1.785,18.981-9.986,13.069-23.644c4.549-11.575,21.616,0.292,11.201,1.773
				c-7.969-0.705-2.478,11.827,4.729,11.119c27.056-19.198,51.947-20.157,83.209-24.526c8.337-1.413-0.57,2.995,3.213,4.22
				c4.561,3.024,18.485-3.308,14.799-7.933c-22.674-29.275,48.635,6.569,48.885,18.354c3.839-31.467-31.231-39.951,5.698-77.83
				c35.673-6.523-1.46,45.939,24.072,78.706c2.14,21.698-55.151,10.115-12.537,22.944c29.792-1.452,11.664-66.269,42.473-18.353
				c-8.922-36.302-42.794-13.902-18.755-76.952c-1.819,15.038,4.224,31.424,14.215,21.187c-7.773-2.3-10.048-4.416-2.282-8.649
				c9.263-8.694,56.859,20.76,31.841-6.185c-30.419-21.982,7.471-20.72,32.791-20.64c13.104-15.807-18.665-34.938,34.684-34.41
				c6.526-5.256,64.905,1.477,59.318-17.309c1.688-9.331,25.634-8.53,25.596-5.297c-2.47,0.884-9.86,4.583,1.697,7.067
				c23.376,1.987-20.551,7.811,13.266,10.407c11.747,0,4.739-1.058,2.84-4.941c3.283-7.426,37.842,5.421,38.283,17.829
				c0.036,17.177-42.714,23.914-48.5,42.183c-4.322,3.183,42.268-9.001,52.681-1.769c49.671-1.475,6.042,10.652,32.975,11.835
				c22.444,4.321,62.395-27.203,65.39,10.053c-11.386,15.956,9.014,39.8,19.14,15.704c13.305,4.362,29.692,7.824,46.438,6.712
				c9.351-9.734-6.489-28.539,26.729-15.887c51.6,14.244,38.209,30.48,95.333,33.883c25.921,18.692-11.329,20.946,47.765,23.117
				c15.151,0.19,10.042-1.753,14.593,1.422c38.198,28.747-10.406-19.866,46.041-0.877
				C2383.778,532.88,2481.603,587.838,2461.186,585.235z M1576.898,764.62c11.961-10.143-1.947,6.759-7.837-19.131
				c-7.49,2.546-21.91-3.325-27.109,7.948c-4.722,11.18-22,13.182-10.042,21.877c1.379,9.373,9.561,24.984,19.53,26.129
				c-7.211,7.841-18.39,39.529,2.075,40.944c28.075,12.206,27.484-9.514,16.49-29.294c-0.111-9.29,16.152-4.461,3.963-17.477
				c-3.011-1.766-4.345,5.833-4.345,5.833c-2.391,3.131,1.19-17.158-2.072-14.481c-4.752,1.108-17.414-21.781-8.354-17.298
				C1553.981,756.465,1569.231,763.995,1576.898,764.62z M869.795,492.672c-2.418,6.949,9.692,6.293,12.857,4.257
				C887.571,487.836,873.398,482.329,869.795,492.672z M1806.735,298.072c-14.306-2.976-2.213,10.546,5.864,7.061
				c9.1-4.42,7.209-4.77,13.467-7.419C1836.277,292.77,1810.474,295.285,1806.735,298.072z"/>
		</g>
		<g>
			<g>
				<g>
					<polygon  points="883.732,1269.56 692.773,1110.705 473.865,849.223 668.077,686.208 384.899,541.424 
						476.825,842.087 474.082,842.924 380.183,535.792 673.228,685.624 671.574,687.014 477.9,849.578 694.788,1108.685 
						885.564,1267.357 					"/>
				</g>
				<g>
					<path  d="M2138.466,1240.558l-223.293-443.151l-304.624-90.384l138.843,201.716l-1.128,0.822
						l-377.186,274.783l-49.093-269.254l51.892-272.592L974.85,415.93L672.12,686.525l23,423.001l-2.86,0.155l-23.075-424.375
						l305.29-272.886l0.896,0.508l401.709,228.089l-0.194,1.007l-51.986,273.077l48.183,264.239l372.37-271.273L1603.59,701.969
						l311.694,92.481l95.826-265.227l122.19,260.176L2138.466,1240.558z M1917.731,796.115l217.728,432.105l-5.022-438.478
						l-118.98-253.045L1917.731,796.115z"/>
				</g>
				<g>
					<path  d="M1319.014,916.599l284.829-211.492l-235.013-63.664l654.341-111.97l-415.385,176.276
						l-279.915,207.844l419.108-6.614l168.743-112.188l0.408-0.012l215.693-6.793l0.088,2.863l-215.284,6.782l-168.761,112.2
						l-0.42,0.007L1319.014,916.599z M1382.127,642.074l224.84,60.91l392.43-166.536L1382.127,642.074z"/>
				</g>
				<g>
					
						<rect x="669.961" y="662.404" transform="matrix(0.998 -0.0634 0.0634 0.998 -40.0273 66.1947)"  width="706.208" height="2.866"/>
				</g>
				<g>
					
						<rect x="1000.166" y="461.068" transform="matrix(0.3311 -0.9436 0.9436 0.3311 -86.9577 1481.6346)"  width="2.867" height="682.171"/>
				</g>
			</g>
			<g>
				<g>
					<g>
						<g>
							<path d="M382.541,490.501L382.541,490.501c-27.107,0-49.081,21.975-49.081,49.081
								c0,27.107,21.975,49.081,49.081,49.081l0,0c27.107,0,49.081-21.974,49.081-49.081
								C431.621,512.475,409.648,490.501,382.541,490.501z"/>
							<path  d="M382.541,590.096c-27.853,0-50.515-22.66-50.515-50.515c0-27.853,22.661-50.514,50.515-50.514
								c27.853,0,50.515,22.661,50.515,50.514C433.056,567.436,410.394,590.096,382.541,590.096z M382.541,491.934
								c-26.274,0-47.649,21.374-47.649,47.648c0,26.274,21.375,47.649,47.649,47.649c26.273,0,47.648-21.375,47.648-47.649
								C430.19,513.308,408.814,491.934,382.541,491.934z"/>
						</g>
					</g>
				</g>
				<path  d="M372.172,528.237v-5.36c0-5.719,4.65-10.371,10.368-10.371c5.718,0,10.369,4.653,10.369,10.371
					v5.36c0,5.719-4.651,10.371-10.369,10.371C376.823,538.608,372.172,533.956,372.172,528.237z"/>
				<path  d="M403.896,564.152h-42.712v-9.998c0-6.756,5.497-12.251,12.252-12.251h18.209
					c6.756,0,12.251,5.494,12.251,12.251V564.152z"/>
			</g>
			<g>
				<g>
					<g>
						<g>
							<path  d="M670.652,637.808L670.652,637.808c-27.107,0-49.081,21.974-49.081,49.081
								c0,27.107,21.974,49.081,49.081,49.081l0,0c27.107,0,49.081-21.974,49.081-49.081
								C719.733,659.783,697.759,637.808,670.652,637.808z"/>
							<path  d="M670.652,737.404c-27.853,0-50.515-22.662-50.515-50.515
								c0-27.854,22.662-50.515,50.515-50.515c27.854,0,50.515,22.661,50.515,50.515
								C721.167,714.743,698.506,737.404,670.652,737.404z M670.652,639.241c-26.273,0-47.648,21.375-47.648,47.649
								c0,26.273,21.375,47.648,47.648,47.648c26.274,0,47.649-21.375,47.649-47.648
								C718.301,660.616,696.926,639.241,670.652,639.241z"/>
						</g>
					</g>
				</g>
				<path  d="M660.284,675.545v-5.36c0-5.718,4.65-10.371,10.369-10.371c5.718,0,10.368,4.652,10.368,10.371
					v5.36c0,5.718-4.65,10.371-10.368,10.371C664.934,685.916,660.284,681.263,660.284,675.545z"/>
				<path  d="M692.007,711.46h-42.713v-9.998c0-6.756,5.497-12.251,12.252-12.251h18.21
					c6.756,0,12.25,5.494,12.25,12.251V711.46z"/>
			</g>
			<g>
				<g>
					<g>
						<g>
							<path  d="M974.661,366.068L974.661,366.068c-27.107,0-49.081,21.974-49.081,49.081
								c0,27.107,21.975,49.081,49.081,49.081l0,0c27.107,0,49.081-21.974,49.081-49.081
								C1023.742,388.043,1001.768,366.068,974.661,366.068z"/>
							<path  d="M974.662,465.664c-27.853,0-50.514-22.66-50.514-50.515c0-27.854,22.662-50.514,50.514-50.514
								c27.854,0,50.515,22.66,50.515,50.514C1025.177,443.003,1002.516,465.664,974.662,465.664z M974.662,367.501
								c-26.273,0-47.648,21.374-47.648,47.648c0,26.273,21.375,47.648,47.648,47.648c26.274,0,47.649-21.375,47.649-47.648
								C1022.311,388.875,1000.936,367.501,974.662,367.501z"/>
						</g>
					</g>
				</g>
				<path  d="M964.293,403.805v-5.36c0-5.718,4.651-10.371,10.369-10.371c5.718,0,10.369,4.653,10.369,10.371
					v5.36c0,5.718-4.651,10.371-10.369,10.371C968.943,414.175,964.293,409.523,964.293,403.805z"/>
				<path  d="M996.017,439.72h-42.712v-9.998c0-6.756,5.496-12.251,12.252-12.251h18.209
					c6.756,0,12.251,5.494,12.251,12.251V439.72z"/>
			</g>
			<g>
				<g>
					<g>
						<g>
							<path  d="M693.69,1061.497L693.69,1061.497c-27.107,0-49.081,21.974-49.081,49.081
								c0,27.107,21.975,49.081,49.081,49.081l0,0c27.107,0,49.081-21.974,49.081-49.081
								C742.771,1083.471,720.797,1061.497,693.69,1061.497z"/>
							<path  d="M693.69,1161.092c-27.853,0-50.514-22.662-50.514-50.515
								c0-27.854,22.661-50.513,50.514-50.513c27.853,0,50.515,22.66,50.515,50.513
								C744.204,1138.431,721.543,1161.092,693.69,1161.092z M693.69,1062.931c-26.274,0-47.649,21.373-47.649,47.647
								c0,26.273,21.375,47.648,47.649,47.648c26.273,0,47.648-21.375,47.648-47.648
								C741.338,1084.304,719.963,1062.931,693.69,1062.931z"/>
						</g>
					</g>
				</g>
				<path  d="M683.322,1099.233v-5.36c0-5.718,4.65-10.371,10.368-10.371c5.719,0,10.369,4.652,10.369,10.371
					v5.36c0,5.718-4.65,10.371-10.369,10.371C687.972,1109.604,683.322,1104.952,683.322,1099.233z"/>
				<path  d="M715.045,1135.148h-42.712v-9.998c0-6.756,5.497-12.251,12.252-12.251h18.21
					c6.756,0,12.25,5.494,12.25,12.251V1135.148z"/>
			</g>
			<g>
				<g>
					<g>
						<g>
							<path  d="M1372.082,1133.734L1372.082,1133.734c-27.107,0-49.081,21.975-49.081,49.081
								c0,27.107,21.974,49.081,49.081,49.081l0,0c27.107,0,49.081-21.974,49.081-49.081
								C1421.163,1155.709,1399.188,1133.734,1372.082,1133.734z"/>
							<path  d="M1372.081,1233.33c-27.854,0-50.515-22.661-50.515-50.515
								c0-27.853,22.662-50.513,50.515-50.513c27.853,0,50.515,22.66,50.515,50.513
								C1422.596,1210.669,1399.934,1233.33,1372.081,1233.33z M1372.081,1135.168c-26.274,0-47.649,21.374-47.649,47.647
								c0,26.274,21.375,47.649,47.649,47.649c26.273,0,47.648-21.375,47.648-47.649
								C1419.73,1156.542,1398.354,1135.168,1372.081,1135.168z"/>
						</g>
					</g>
				</g>
				<path  d="M1361.713,1171.471v-5.36c0-5.719,4.651-10.371,10.369-10.371s10.368,4.652,10.368,10.371v5.36
					c0,5.718-4.65,10.371-10.368,10.371S1361.713,1177.189,1361.713,1171.471z"/>
				<path  d="M1393.437,1207.386h-42.712v-9.998c0-6.756,5.497-12.251,12.252-12.251h18.21
					c6.756,0,12.25,5.495,12.25,12.251V1207.386z"/>
			</g>
			<g>
				<g>
					<g>
						<g>
							<path  d="M1747.423,860.296L1747.423,860.296c-27.107,0-49.081,21.974-49.081,49.081
								c0,27.107,21.975,49.081,49.081,49.081l0,0c27.107,0,49.081-21.974,49.081-49.081
								C1796.504,882.27,1774.53,860.296,1747.423,860.296z"/>
							<path  d="M1747.423,959.891c-27.854,0-50.515-22.662-50.515-50.514
								c0-27.854,22.661-50.513,50.515-50.513c27.853,0,50.514,22.66,50.514,50.513
								C1797.937,937.229,1775.276,959.891,1747.423,959.891z M1747.423,861.73c-26.274,0-47.649,21.373-47.649,47.647
								c0,26.273,21.375,47.648,47.649,47.648c26.273,0,47.648-21.375,47.648-47.648
								C1795.071,883.103,1773.696,861.73,1747.423,861.73z"/>
						</g>
					</g>
				</g>
				<path  d="M1737.054,898.032v-5.36c0-5.718,4.65-10.371,10.368-10.371c5.718,0,10.369,4.652,10.369,10.371
					v5.36c0,5.718-4.651,10.371-10.369,10.371C1741.705,908.403,1737.054,903.75,1737.054,898.032z"/>
				<path  d="M1768.778,933.947h-42.713v-9.998c0-6.756,5.497-12.251,12.253-12.251h18.21
					c6.756,0,12.25,5.495,12.25,12.251V933.947z"/>
			</g>
			<g>
				<g>
					<g>
						<g>
							<path  d="M1375.479,593.651L1375.479,593.651c-27.107,0-49.081,21.974-49.081,49.081
								c0,27.107,21.974,49.081,49.081,49.081l0,0c27.107,0,49.081-21.974,49.081-49.081
								C1424.559,615.625,1402.585,593.651,1375.479,593.651z"/>
							<path  d="M1375.479,693.246c-27.854,0-50.515-22.662-50.515-50.514
								c0-27.854,22.661-50.513,50.515-50.513c27.853,0,50.514,22.66,50.514,50.513
								C1425.993,670.584,1403.332,693.246,1375.479,693.246z M1375.479,595.084c-26.274,0-47.649,21.373-47.649,47.647
								c0,26.273,21.375,47.648,47.649,47.648c26.273,0,47.648-21.375,47.648-47.648
								C1423.127,616.458,1401.752,595.084,1375.479,595.084z"/>
						</g>
					</g>
				</g>
				<path  d="M1365.11,631.387v-5.36c0-5.718,4.651-10.371,10.369-10.371c5.718,0,10.368,4.653,10.368,10.371
					v5.36c0,5.718-4.65,10.371-10.368,10.371C1369.76,641.758,1365.11,637.105,1365.11,631.387z"/>
				<path  d="M1396.833,667.302h-42.713v-9.998c0-6.756,5.497-12.251,12.253-12.251h18.21
					c6.756,0,12.25,5.495,12.25,12.251V667.302z"/>
			</g>
			<g>
				<g>
					<g>
						<g>
							<path  d="M2131.869,741.308L2131.869,741.308c-27.107,0-49.081,21.974-49.081,49.081
								c0,27.107,21.975,49.081,49.081,49.081l0,0c27.107,0,49.081-21.975,49.081-49.081
								C2180.95,763.282,2158.976,741.308,2131.869,741.308z"/>
							<path  d="M2131.868,840.904c-27.853,0-50.515-22.662-50.515-50.515
								c0-27.854,22.662-50.514,50.515-50.514c27.854,0,50.514,22.661,50.514,50.514
								C2182.382,818.242,2159.721,840.904,2131.868,840.904z M2131.868,742.74c-26.273,0-47.648,21.375-47.648,47.649
								c0,26.273,21.375,47.648,47.648,47.648c26.274,0,47.649-21.375,47.649-47.648
								C2179.517,764.115,2158.141,742.74,2131.868,742.74z"/>
						</g>
					</g>
				</g>
				<path  d="M2121.5,779.044v-5.36c0-5.719,4.65-10.371,10.368-10.371c5.718,0,10.369,4.653,10.369,10.371
					v5.36c0,5.719-4.651,10.371-10.369,10.371C2126.151,789.415,2121.5,784.763,2121.5,779.044z"/>
				<path  d="M2153.224,814.959h-42.712v-9.998c0-6.756,5.497-12.25,12.252-12.25h18.209
					c6.756,0,12.25,5.495,12.25,12.25V814.959z"/>
			</g>
			<g>
				<g>
					<g>
						<g>
							<path  d="M2011.285,484.853L2011.285,484.853c-27.107,0-49.081,21.975-49.081,49.081
								c0,27.107,21.974,49.081,49.081,49.081l0,0c27.107,0,49.081-21.975,49.081-49.081
								C2060.365,506.828,2038.391,484.853,2011.285,484.853z"/>
							<path  d="M2011.284,584.448c-27.853,0-50.515-22.66-50.515-50.514
								c0-27.853,22.662-50.514,50.515-50.514c27.854,0,50.514,22.661,50.514,50.514
								C2061.798,561.788,2039.137,584.448,2011.284,584.448z M2011.284,486.286c-26.273,0-47.648,21.375-47.648,47.648
								c0,26.274,21.375,47.648,47.648,47.648c26.274,0,47.649-21.374,47.649-47.648
								C2058.933,507.661,2037.557,486.286,2011.284,486.286z"/>
						</g>
					</g>
				</g>
				<path  d="M2000.916,522.589v-5.36c0-5.719,4.651-10.371,10.369-10.371c5.718,0,10.368,4.653,10.368,10.371
					v5.36c0,5.719-4.65,10.371-10.368,10.371C2005.566,532.961,2000.916,528.308,2000.916,522.589z"/>
				<path  d="M2032.639,558.504h-42.712v-9.998c0-6.756,5.497-12.25,12.252-12.25h18.21
					c6.756,0,12.25,5.494,12.25,12.25V558.504z"/>
			</g>
			<g>
				<g>
					<g>
						<g>
							<path  d="M2136.964,1186.283L2136.964,1186.283c-27.107,0-49.082,21.974-49.082,49.081
								c0,27.107,21.975,49.081,49.082,49.081l0,0c27.107,0,49.081-21.975,49.081-49.081
								C2186.045,1208.257,2164.071,1186.283,2136.964,1186.283z"/>
							<path  d="M2136.966,1285.878c-27.854,0-50.514-22.661-50.514-50.514
								c0-27.854,22.661-50.515,50.514-50.515c27.853,0,50.511,22.661,50.511,50.515
								C2187.477,1263.217,2164.819,1285.878,2136.966,1285.878z M2136.966,1187.715c-26.274,0-47.649,21.375-47.649,47.649
								c0,26.273,21.375,47.648,47.649,47.648c26.273,0,47.645-21.375,47.645-47.648
								C2184.611,1209.09,2163.239,1187.715,2136.966,1187.715z"/>
						</g>
					</g>
				</g>
				<path  d="M2126.596,1224.019v-5.36c0-5.719,4.65-10.371,10.368-10.371c5.718,0,10.369,4.652,10.369,10.371
					v5.36c0,5.719-4.651,10.371-10.369,10.371C2131.246,1234.39,2126.596,1229.737,2126.596,1224.019z"/>
				<path  d="M2158.319,1259.933h-42.713v-9.998c0-6.756,5.497-12.25,12.253-12.25h18.209
					c6.756,0,12.251,5.494,12.251,12.25V1259.933z"/>
			</g>
			<g>
				<g>
					<g>
						<g>
							<path  d="M1916.175,748.102L1916.175,748.102c-27.107,0-49.081,21.974-49.081,49.081
								c0,27.107,21.975,49.081,49.081,49.081l0,0c27.107,0,49.081-21.975,49.081-49.081
								C1965.256,770.076,1943.282,748.102,1916.175,748.102z"/>
							<path  d="M1916.175,847.697c-27.854,0-50.515-22.661-50.515-50.514
								c0-27.853,22.661-50.515,50.515-50.515c27.853,0,50.515,22.662,50.515,50.515
								C1966.69,825.036,1944.028,847.697,1916.175,847.697z M1916.175,749.534c-26.274,0-47.649,21.375-47.649,47.648
								c0,26.274,21.375,47.649,47.649,47.649c26.273,0,47.648-21.375,47.648-47.649
								C1963.823,770.909,1942.448,749.534,1916.175,749.534z"/>
						</g>
					</g>
				</g>
				<path  d="M1905.807,785.838v-5.36c0-5.719,4.65-10.371,10.368-10.371s10.369,4.652,10.369,10.371v5.36
					c0,5.719-4.651,10.371-10.369,10.371S1905.807,791.556,1905.807,785.838z"/>
				<path  d="M1937.53,821.752h-42.713v-9.998c0-6.756,5.497-12.251,12.252-12.251h18.209
					c6.756,0,12.251,5.495,12.251,12.251V821.752z"/>
			</g>
			<g>
				<g>
					<g>
						<g>
							<path  d="M1323.442,866.988L1323.442,866.988c-27.107,0-49.081,21.974-49.081,49.081
								c0,27.107,21.974,49.081,49.081,49.081l0,0c27.107,0,49.081-21.974,49.081-49.081
								C1372.523,888.962,1350.549,866.988,1323.442,866.988z"/>
							<path  d="M1323.443,966.584c-27.853,0-50.515-22.662-50.515-50.515
								c0-27.853,22.662-50.514,50.515-50.514c27.854,0,50.512,22.661,50.512,50.514
								C1373.955,943.922,1351.296,966.584,1323.443,966.584z M1323.443,868.42c-26.273,0-47.648,21.375-47.648,47.649
								c0,26.273,21.375,47.648,47.648,47.648c26.274,0,47.646-21.375,47.646-47.648
								C1371.088,889.795,1349.716,868.42,1323.443,868.42z"/>
						</g>
					</g>
				</g>
				<path  d="M1313.073,904.724v-5.36c0-5.718,4.651-10.371,10.369-10.371c5.718,0,10.368,4.653,10.368,10.371
					v5.36c0,5.718-4.65,10.371-10.368,10.371C1317.724,915.095,1313.073,910.442,1313.073,904.724z"/>
				<path  d="M1344.797,940.639h-42.713v-9.998c0-6.756,5.497-12.251,12.252-12.251h18.21
					c6.756,0,12.25,5.494,12.25,12.251V940.639z"/>
			</g>
			<g>
				<g>
					<g>
						<g>
							<path  d="M475.882,801.294L475.882,801.294c-27.107,0-49.081,21.974-49.081,49.081
								c0,27.107,21.975,49.081,49.081,49.081l0,0c27.107,0,49.081-21.974,49.081-49.081
								C524.963,823.268,502.989,801.294,475.882,801.294z"/>
							<path  d="M475.883,900.888c-27.854,0-50.515-22.66-50.515-50.513c0-27.853,22.662-50.514,50.515-50.514
								c27.853,0,50.514,22.662,50.514,50.514C526.397,878.229,503.736,900.888,475.883,900.888z M475.883,802.727
								c-26.274,0-47.649,21.375-47.649,47.648c0,26.274,21.375,47.647,47.649,47.647c26.273,0,47.648-21.373,47.648-47.647
								C523.531,824.102,502.156,802.727,475.883,802.727z"/>
						</g>
					</g>
				</g>
				<path  d="M465.513,839.03v-5.36c0-5.718,4.651-10.371,10.369-10.371c5.718,0,10.368,4.653,10.368,10.371
					v5.36c0,5.718-4.65,10.371-10.368,10.371C470.164,849.401,465.513,844.748,465.513,839.03z"/>
				<path  d="M497.237,874.945h-42.712v-9.998c0-6.756,5.497-12.251,12.253-12.251h18.209
					c6.756,0,12.25,5.495,12.25,12.251V874.945z"/>
			</g>
			<g>
				<g>
					<g>
						<g>
							<path  d="M884.648,1220.352L884.648,1220.352c-27.107,0-49.081,21.974-49.081,49.081
								c0,27.107,21.974,49.081,49.081,49.081l0,0c27.107,0,49.081-21.974,49.081-49.081
								C933.729,1242.326,911.754,1220.352,884.648,1220.352z"/>
							<path  d="M884.648,1319.947c-27.853,0-50.514-22.66-50.514-50.513
								c0-27.853,22.662-50.515,50.514-50.515c27.854,0,50.515,22.662,50.515,50.515
								C935.162,1297.287,912.501,1319.947,884.648,1319.947z M884.648,1221.785c-26.273,0-47.648,21.375-47.648,47.648
								c0,26.274,21.375,47.647,47.648,47.647c26.274,0,47.649-21.373,47.649-47.647
								C932.297,1243.16,910.921,1221.785,884.648,1221.785z"/>
						</g>
					</g>
				</g>
				<path  d="M874.279,1258.088v-5.36c0-5.719,4.65-10.371,10.369-10.371c5.718,0,10.368,4.652,10.368,10.371
					v5.36c0,5.719-4.65,10.371-10.368,10.371C878.929,1268.459,874.279,1263.807,874.279,1258.088z"/>
				<path  d="M906.003,1294.003H863.29v-9.998c0-6.756,5.497-12.251,12.252-12.251h18.21
					c6.756,0,12.25,5.494,12.25,12.251V1294.003z"/>
			</g>
			<g>
				<g>
					<g>
						<g>
							<path  d="M1607.071,656.389L1607.071,656.389c-27.107,0-49.081,21.974-49.081,49.081
								c0,27.107,21.975,49.081,49.081,49.081l0,0c27.107,0,49.081-21.974,49.081-49.081
								C1656.151,678.363,1634.177,656.389,1607.071,656.389z"/>
							<path  d="M1607.07,755.984c-27.854,0-50.515-22.66-50.515-50.513c0-27.854,22.661-50.514,50.515-50.514
								c27.853,0,50.515,22.661,50.515,50.514C1657.585,733.324,1634.923,755.984,1607.07,755.984z M1607.07,657.822
								c-26.274,0-47.649,21.375-47.649,47.649c0,26.273,21.375,47.647,47.649,47.647c26.273,0,47.648-21.374,47.648-47.647
								C1654.718,679.197,1633.343,657.822,1607.07,657.822z"/>
						</g>
					</g>
				</g>
				<path  d="M1596.702,694.125v-5.36c0-5.718,4.651-10.371,10.369-10.371c5.718,0,10.369,4.652,10.369,10.371
					v5.36c0,5.718-4.651,10.371-10.369,10.371C1601.353,704.496,1596.702,699.844,1596.702,694.125z"/>
				<path  d="M1628.426,730.04h-42.713v-9.998c0-6.756,5.496-12.251,12.252-12.251h18.209
					c6.756,0,12.251,5.495,12.251,12.251V730.04z"/>
			</g>
		</g>
	</g>
</g>
</svg>
